<svg version="1.1" id="Layer_1" xmlns="http://www.w3.org/2000/svg" xmlns:xlink="http://www.w3.org/1999/xlink" x="0px" y="0px"
	 width="100%" viewBox="0 0 1200 900" enable-background="new 0 0 1200 900" xml:space="preserve">
<path fill="#FFF7F7" opacity="1.000000" stroke="none" 
	d="
M840.000000,901.000000 
	C560.033203,901.000000 280.566437,901.000000 1.049829,901.000000 
	C1.049829,601.068909 1.049829,301.137756 1.049829,1.103312 
	C400.883575,1.103312 800.767151,1.103312 1200.825439,1.103312 
	C1200.825439,300.999908 1200.825439,600.999939 1200.825439,901.000000 
	C1080.804199,901.000000 960.652100,901.000000 840.000000,901.000000 
M346.013245,674.011658 
	C354.076752,681.658752 362.140289,689.305786 370.191864,697.298157 
	C370.191864,697.298157 370.207153,697.643250 370.096710,698.510498 
	C371.048431,702.863342 371.778473,707.278748 372.987274,711.558960 
	C381.969513,743.364502 400.826508,767.390686 430.049591,782.977600 
	C450.700439,793.992126 473.360352,797.346802 496.271271,798.870850 
	C511.347809,799.873657 526.503967,799.886169 541.626221,799.952271 
	C575.117249,800.098572 608.611816,800.249939 642.100281,799.922729 
	C670.179688,799.648376 698.302063,801.499390 726.335632,798.072388 
	C741.291870,796.243958 755.702759,792.644836 769.315674,786.272766 
	C791.649353,775.818726 808.974792,759.679382 820.785706,738.100769 
	C827.894836,725.112488 833.068298,711.238708 834.437866,695.628052 
	C849.099792,684.419861 860.673218,670.709045 868.428162,653.867554 
	C874.403992,640.889954 877.959229,627.365662 878.016296,612.215454 
	C878.056824,611.163940 878.097351,610.112366 878.679016,608.774597 
	C878.738770,608.186218 878.798584,607.597839 878.996399,606.080017 
	C878.943481,598.055603 878.890564,590.031250 878.977295,581.078003 
	C878.931519,571.387817 878.885742,561.697632 878.977661,551.078247 
	C878.930237,532.389526 878.882874,513.700867 878.976318,494.082214 
	C878.936768,474.386688 878.897217,454.691193 878.981812,434.066376 
	C878.933105,411.045532 878.884399,388.024658 878.969299,364.074615 
	C878.926819,341.722473 878.884338,319.370361 878.974243,296.087067 
	C878.930420,287.720490 878.886597,279.353943 878.957703,270.113708 
	C878.639099,266.808411 878.414673,263.490845 877.985107,260.200043 
	C876.390137,247.983292 874.200134,235.922226 868.044128,224.222443 
	C866.954834,222.016846 866.130005,219.624451 864.728149,217.639587 
	C859.981201,210.918304 855.029907,204.341354 849.949829,197.083527 
	C843.493042,191.644974 837.036255,186.206421 830.145752,180.203995 
	C820.924866,173.911499 811.137146,168.860779 799.526550,166.078491 
	C790.017212,164.776016 780.507935,163.473541 770.069641,162.038849 
	C757.712585,162.081650 745.355591,162.124451 732.069214,162.037430 
	C718.379578,162.080933 704.689941,162.124435 690.070679,162.037949 
	C678.378845,162.081680 666.687012,162.125412 654.066650,162.039291 
	C612.838562,162.026855 571.610168,162.093201 530.382751,161.920410 
	C523.907959,161.893280 518.348999,163.724991 512.525513,167.436630 
	C501.624390,176.900787 490.595398,186.222351 479.849152,195.859253 
	C458.457031,215.043045 437.223816,234.404053 415.918549,253.684753 
	C390.559692,276.633820 365.179901,299.559784 339.857178,322.548553 
	C337.716095,324.492310 335.937439,326.835266 333.429535,329.354340 
	C330.288208,334.815399 325.361084,339.986420 324.416046,345.804230 
	C322.926544,354.973663 324.113617,364.577850 324.037781,374.927399 
	C324.080597,382.951782 324.123444,390.976135 324.037048,399.929504 
	C324.080292,406.953186 324.123535,413.976898 324.037567,421.929474 
	C324.080872,428.618988 324.124176,435.308472 324.037964,442.927460 
	C324.076965,456.945984 324.115967,470.964508 324.024841,485.915405 
	C324.074158,494.945404 324.123474,503.975372 324.044159,513.934387 
	C324.085205,520.623230 324.126251,527.312073 324.038727,534.930115 
	C324.081268,548.619568 324.123840,562.309021 324.038055,576.928528 
	C324.025665,590.064941 323.847168,603.204529 324.096741,616.335938 
	C324.177216,620.568726 325.384399,624.779968 326.017029,629.807373 
	C328.572388,643.695007 333.682404,656.516357 342.090546,668.667053 
	C343.322083,670.241455 344.553589,671.815918 346.013245,674.011658 
z"/>
<path fill="#FF994D" opacity="1.000000" stroke="none" 
	d="
M800.122253,166.498123 
	C811.137146,168.860779 820.924866,173.911499 829.998413,180.631104 
	C816.590393,188.859497 803.321350,196.646530 790.071533,204.466248 
	C777.426636,211.928940 764.886902,219.574371 752.145569,226.868103 
	C737.622437,235.181854 722.928284,243.197006 708.306396,251.338257 
	C704.560486,253.423935 700.751465,255.402679 697.067627,257.592377 
	C687.560120,263.243683 678.198120,269.145172 668.610046,274.654327 
	C653.538269,283.314301 638.273499,291.638031 623.195374,300.287048 
	C611.568970,306.956146 600.196960,314.071259 588.530884,320.668060 
	C581.769714,324.491333 574.440979,327.321503 567.732300,331.225128 
	C548.402527,342.472717 529.210266,353.959625 510.080109,365.544342 
	C506.129059,367.936981 502.680267,371.158997 498.596985,374.050995 
	C495.749268,374.467682 493.284454,374.730743 490.863068,375.212280 
	C464.633362,380.428528 439.178284,387.654083 415.213013,400.130676 
	C396.505310,409.870178 379.775940,422.019440 364.385803,436.183472 
	C350.150940,449.284302 338.666260,464.689697 328.059692,480.787445 
	C327.023163,482.360626 325.468903,483.592682 324.154968,484.983032 
	C324.115967,470.964508 324.076965,456.945984 324.458008,442.414246 
	C337.616821,435.256683 350.533508,428.929443 363.056854,421.901367 
	C388.325531,407.720673 413.390778,393.177094 438.511597,378.733917 
	C442.095947,376.673065 445.450104,374.211700 449.035614,372.153046 
	C458.385193,366.784973 467.848663,361.614746 477.184692,356.223663 
	C490.402924,348.590790 503.481415,340.714386 516.743652,333.159790 
	C528.201965,326.632782 539.930420,320.578491 551.363098,314.008270 
	C564.928162,306.212585 578.272095,298.032928 591.772156,290.122681 
	C604.483337,282.674622 617.260071,275.338165 630.031250,267.993134 
	C645.951904,258.836761 661.895630,249.720459 677.830811,240.589325 
	C696.110046,230.114975 714.402100,219.662933 732.666992,209.163635 
	C745.460632,201.809387 758.294128,194.519608 770.966064,186.960175 
	C779.909424,181.625000 788.649780,175.944183 797.378296,170.260345 
	C798.594055,169.468658 799.222107,167.774490 800.122253,166.498123 
z"/>
<path fill="#FF4E72" opacity="1.000000" stroke="none" 
	d="
M878.835449,495.012146 
	C878.882874,513.700867 878.930237,532.389526 878.542175,551.547852 
	C873.326904,554.274963 868.385498,556.246338 863.795288,558.839355 
	C843.838623,570.113403 823.950500,581.510254 804.103638,592.976929 
	C789.007080,601.699036 774.048523,610.660156 758.935547,619.353210 
	C756.011902,621.034851 755.619507,623.260315 756.178894,626.055115 
	C757.728577,633.797485 757.596375,634.148438 750.785645,638.088074 
	C748.484985,639.418884 746.187744,640.756104 743.869019,642.054932 
	C729.254089,650.241577 714.529053,658.238342 700.042053,666.645142 
	C682.962097,676.556641 666.131836,686.898010 649.068970,696.839661 
	C646.747437,698.192322 643.705750,698.308960 640.727905,698.800842 
	C637.304749,693.403381 634.151123,688.202881 631.403320,683.001465 
	C637.131470,680.592834 642.658325,678.550293 647.736511,675.706421 
	C660.885071,668.342834 673.836060,660.626221 686.865723,653.050293 
	C694.989136,648.327026 703.109192,643.598083 711.236328,638.881287 
	C719.685913,633.977356 727.986206,628.787415 736.631592,624.256287 
	C750.156982,617.167480 750.656677,615.712463 741.644226,603.385620 
	C741.350464,602.983826 741.009583,602.616760 740.705505,602.222107 
	C738.538940,599.410645 736.142151,599.211548 732.486084,599.758789 
	C725.166077,600.854248 717.642334,600.633789 710.199158,600.786682 
	C709.478638,600.801514 708.733643,599.627197 708.296753,598.711182 
	C713.389282,598.278259 718.209473,598.398193 722.975891,597.948669 
	C734.852844,596.828369 741.248047,593.822021 743.552002,584.446411 
	C745.351501,577.123840 745.898743,569.493530 747.351868,562.058472 
	C750.361816,565.570129 752.991272,565.184998 756.627197,563.038696 
	C775.168274,552.093811 793.874939,541.428528 812.567810,530.742371 
	C827.493042,522.209961 842.404724,513.648132 857.476257,505.379639 
	C864.406128,501.577789 871.704285,498.447174 878.835449,495.012146 
z"/>
<path fill="#FF8657" opacity="1.000000" stroke="none" 
	d="
M868.183411,224.930267 
	C874.200134,235.922226 876.390137,247.983292 877.985107,260.200043 
	C878.414673,263.490845 878.639099,266.808411 878.552063,270.508057 
	C876.369019,271.165833 874.180176,270.865051 872.894470,271.802704 
	C869.563110,274.232269 866.817017,277.459503 863.505249,279.921783 
	C847.571167,291.768524 832.128113,304.418793 815.381775,314.996368 
	C790.202393,330.900543 762.732422,342.371521 734.440979,351.631226 
	C710.197815,359.565979 685.455505,365.553864 660.147217,369.099579 
	C655.794861,369.709381 650.861267,370.142792 647.419250,372.468140 
	C639.768127,377.636993 632.950317,384.026611 625.681763,389.778320 
	C619.590088,394.598724 613.575317,399.580383 607.080750,403.805450 
	C602.602173,406.719025 599.713379,405.563019 597.974060,401.365051 
	C598.693909,400.656769 599.280334,400.196167 600.034485,400.070801 
	C601.647522,400.695709 603.404480,401.652618 604.479736,401.150238 
	C607.733032,399.630341 610.986206,397.870605 613.765503,395.619263 
	C622.770752,388.324554 631.431519,380.602875 640.472229,373.353912 
	C652.589966,363.637665 664.938660,354.209381 677.483643,344.830811 
	C681.066223,348.842712 684.239807,352.789124 687.717224,356.446655 
	C688.627991,357.404602 690.481934,357.465729 692.226807,358.099365 
	C695.153870,360.732941 697.802246,360.575226 699.709351,357.683868 
	C703.245178,352.322968 706.712585,346.884338 709.739502,341.227173 
	C715.833557,329.837891 721.734375,318.340485 727.476074,306.769226 
	C730.853333,299.962982 736.488342,293.609863 733.333008,285.048279 
	C735.170227,286.731689 737.113647,288.158234 738.050537,290.076416 
	C740.692627,295.485504 742.852966,296.421875 748.237061,293.337189 
	C757.119324,288.248322 765.871155,282.931976 774.744324,277.826752 
	C791.845093,267.987610 808.991272,258.227356 826.120728,248.438019 
	C832.313232,244.899033 838.485657,241.323883 844.713867,237.848755 
	C852.511963,233.497620 860.358032,229.232498 868.183411,224.930267 
z"/>
<path fill="#FF9C4A" opacity="1.000000" stroke="none" 
	d="
M799.824402,166.288300 
	C799.222107,167.774490 798.594055,169.468658 797.378296,170.260345 
	C788.649780,175.944183 779.909424,181.625000 770.966064,186.960175 
	C758.294128,194.519608 745.460632,201.809387 732.666992,209.163635 
	C714.402100,219.662933 696.110046,230.114975 677.830811,240.589325 
	C661.895630,249.720459 645.951904,258.836761 630.031250,267.993134 
	C617.260071,275.338165 604.483337,282.674622 591.772156,290.122681 
	C578.272095,298.032928 564.928162,306.212585 551.363098,314.008270 
	C539.930420,320.578491 528.201965,326.632782 516.743652,333.159790 
	C503.481415,340.714386 490.402924,348.590790 477.184692,356.223663 
	C467.848663,361.614746 458.385193,366.784973 449.035614,372.153046 
	C445.450104,374.211700 442.095947,376.673065 438.511597,378.733917 
	C413.390778,393.177094 388.325531,407.720673 363.056854,421.901367 
	C350.533508,428.929443 337.616821,435.256683 324.522766,441.949493 
	C324.124176,435.308472 324.080872,428.618988 324.487427,421.463867 
	C330.392151,418.683655 336.034485,416.726166 341.263916,413.981995 
	C353.147797,407.745758 364.935425,401.307861 376.561218,394.603394 
	C387.422699,388.339691 397.951111,381.500610 408.766876,375.154694 
	C416.033813,370.891022 423.628693,367.188446 430.925903,362.973450 
	C438.728851,358.466370 446.288788,353.539093 454.081024,349.012543 
	C459.199768,346.039001 464.630493,343.604279 469.764465,340.654846 
	C478.050476,335.894531 486.143402,330.797821 494.435516,326.048584 
	C503.285706,320.979767 512.324463,316.240387 521.178772,311.178497 
	C526.045837,308.396118 530.619141,305.102081 535.470459,302.289825 
	C547.511353,295.309875 559.687439,288.562714 571.713562,281.557800 
	C586.162292,273.141754 600.430786,264.413940 614.933533,256.093414 
	C624.407593,250.657913 634.254272,245.874039 643.762207,240.494522 
	C654.968323,234.154175 665.975220,227.462326 677.095764,220.969482 
	C682.777893,217.651871 688.580322,214.537445 694.219360,211.149673 
	C702.222168,206.341858 710.044983,201.231430 718.091858,196.500595 
	C726.271790,191.691513 734.647827,187.216919 742.898621,182.526642 
	C745.051208,181.302948 747.022217,179.764069 749.137512,178.469498 
	C754.911926,174.935516 760.841614,171.636383 766.445496,167.852676 
	C768.366211,166.555756 769.503418,164.098312 770.998657,162.171066 
	C780.507935,163.473541 790.017212,164.776016 799.824402,166.288300 
z"/>
<path fill="#FF9F49" opacity="1.000000" stroke="none" 
	d="
M770.534180,162.104965 
	C769.503418,164.098312 768.366211,166.555756 766.445496,167.852676 
	C760.841614,171.636383 754.911926,174.935516 749.137512,178.469498 
	C747.022217,179.764069 745.051208,181.302948 742.898621,182.526642 
	C734.647827,187.216919 726.271790,191.691513 718.091858,196.500595 
	C710.044983,201.231430 702.222168,206.341858 694.219360,211.149673 
	C688.580322,214.537445 682.777893,217.651871 677.095764,220.969482 
	C665.975220,227.462326 654.968323,234.154175 643.762207,240.494522 
	C634.254272,245.874039 624.407593,250.657913 614.933533,256.093414 
	C600.430786,264.413940 586.162292,273.141754 571.713562,281.557800 
	C559.687439,288.562714 547.511353,295.309875 535.470459,302.289825 
	C530.619141,305.102081 526.045837,308.396118 521.178772,311.178497 
	C512.324463,316.240387 503.285706,320.979767 494.435516,326.048584 
	C486.143402,330.797821 478.050476,335.894531 469.764465,340.654846 
	C464.630493,343.604279 459.199768,346.039001 454.081024,349.012543 
	C446.288788,353.539093 438.728851,358.466370 430.925903,362.973450 
	C423.628693,367.188446 416.033813,370.891022 408.766876,375.154694 
	C397.951111,381.500610 387.422699,388.339691 376.561218,394.603394 
	C364.935425,401.307861 353.147797,407.745758 341.263916,413.981995 
	C336.034485,416.726166 330.392151,418.683655 324.552032,420.999451 
	C324.123535,413.976898 324.080292,406.953186 324.476685,399.456360 
	C332.351135,395.450806 339.966461,392.249603 347.182892,388.316498 
	C361.878876,380.306885 376.414154,371.996918 390.914612,363.635498 
	C407.015350,354.351349 422.929810,344.743042 439.063782,335.517944 
	C452.141144,328.040497 465.504028,321.062927 478.592102,313.603638 
	C491.642548,306.165741 504.509644,298.406006 517.455139,290.784027 
	C525.726562,285.914001 534.027710,281.093628 542.255371,276.150787 
	C553.739197,269.251648 565.048889,262.054047 576.655273,255.370010 
	C586.226929,249.857788 596.243835,245.121170 605.843567,239.654739 
	C619.461060,231.900375 632.807312,223.670486 646.397705,215.867142 
	C660.884827,207.548920 675.565369,199.568222 690.078308,191.294327 
	C701.436829,184.818817 712.817688,178.357239 723.870361,171.384964 
	C727.433472,169.137299 729.984558,165.285339 732.998535,162.167267 
	C745.355591,162.124451 757.712585,162.081650 770.534180,162.104965 
z"/>
<path fill="#FF616E" opacity="1.000000" stroke="none" 
	d="
M878.905884,494.547180 
	C871.704285,498.447174 864.406128,501.577789 857.476257,505.379639 
	C842.404724,513.648132 827.493042,522.209961 812.567810,530.742371 
	C793.874939,541.428528 775.168274,552.093811 756.627197,563.038696 
	C752.991272,565.184998 750.361816,565.570129 747.351807,561.593933 
	C746.989441,557.740845 747.482483,554.315796 746.878052,551.096863 
	C743.888123,535.172485 743.696655,519.112244 744.000000,502.538910 
	C744.004028,493.710815 744.008118,485.352356 744.375610,477.069458 
	C746.169556,481.298767 747.511169,485.486115 749.060852,489.594971 
	C750.174927,492.548981 751.688232,493.712311 755.091003,491.664551 
	C763.754456,486.450989 772.698364,481.704193 781.517578,476.748444 
	C790.893799,471.479767 800.259583,466.192688 809.622803,460.901001 
	C823.864624,452.852051 838.087463,444.769409 852.351196,436.759491 
	C854.733154,435.421875 856.506287,434.021393 855.358948,431.038513 
	C862.986633,435.027802 870.570862,437.086029 878.857605,434.995667 
	C878.897217,454.691193 878.936768,474.386688 878.905884,494.547180 
z"/>
<path fill="#FF8856" opacity="1.000000" stroke="none" 
	d="
M324.166382,575.998535 
	C324.123840,562.309021 324.081268,548.619568 324.469116,534.457642 
	C334.606720,529.114563 344.493500,524.567322 353.979309,519.298096 
	C368.454681,511.257294 382.642761,502.700043 396.975555,494.401337 
	C400.690216,492.250549 404.561310,490.365204 408.235626,488.150665 
	C418.123657,482.191284 427.864166,475.983948 437.812653,470.128906 
	C449.209900,463.421204 460.671082,456.807373 472.304657,450.523376 
	C476.858398,448.063629 479.912842,445.381836 479.097351,439.751556 
	C478.968536,438.861877 479.982330,437.806763 480.711548,436.976532 
	C481.990723,437.085297 483.026184,437.045654 484.449860,437.051514 
	C490.751160,439.999115 494.675659,436.040802 498.569489,432.828156 
	C518.616150,416.288513 538.470093,399.514130 558.601929,383.079712 
	C562.986877,379.500092 568.233215,376.975708 573.374023,374.109985 
	C574.291748,375.128906 574.918213,376.003143 575.103027,376.909729 
	C571.810974,378.062073 568.491272,378.586578 566.187988,380.401123 
	C553.596558,390.320679 541.221252,400.516479 528.861389,410.725861 
	C526.859314,412.379547 525.306824,414.577362 522.654175,417.510345 
	C542.974182,415.911011 561.482239,414.454285 580.408325,412.997833 
	C582.220093,412.999146 583.613708,413.000183 584.946289,413.346741 
	C581.649902,415.900726 578.513794,418.275055 575.158325,420.282562 
	C568.516541,424.256165 565.402283,432.376251 557.172852,434.710907 
	C552.896301,435.924103 548.991028,438.805328 545.219849,441.375824 
	C531.125305,450.982666 516.434021,458.887482 499.119598,461.220123 
	C494.643036,461.823212 488.794800,461.948151 486.735046,468.315613 
	C481.266388,472.375916 477.968475,477.305847 477.511230,484.066467 
	C473.883575,487.712921 471.149048,492.178009 467.180969,494.709412 
	C455.639252,502.072327 443.605164,508.663635 431.761169,515.552429 
	C419.201691,522.857361 406.626984,530.136230 394.080139,537.462830 
	C377.091919,547.382874 360.210571,557.490356 343.100464,567.195007 
	C337.066010,570.617737 330.493317,573.091492 324.166382,575.998535 
z"/>
<path fill="#FF9350" opacity="1.000000" stroke="none" 
	d="
M499.000000,373.998779 
	C502.680267,371.158997 506.129059,367.936981 510.080109,365.544342 
	C529.210266,353.959625 548.402527,342.472717 567.732300,331.225128 
	C574.440979,327.321503 581.769714,324.491333 588.530884,320.668060 
	C600.196960,314.071259 611.568970,306.956146 623.195374,300.287048 
	C638.273499,291.638031 653.538269,283.314301 668.610046,274.654327 
	C678.198120,269.145172 687.560120,263.243683 697.067627,257.592377 
	C700.751465,255.402679 704.560486,253.423935 708.306396,251.338257 
	C722.928284,243.197006 737.622437,235.181854 752.145569,226.868103 
	C764.886902,219.574371 777.426636,211.928940 790.071533,204.466248 
	C803.321350,196.646530 816.590393,188.859497 830.215271,180.913025 
	C837.036255,186.206421 843.493042,191.644974 849.857300,197.707062 
	C845.874146,200.539688 841.992432,202.764587 838.091431,204.955063 
	C824.229553,212.738739 810.289673,220.386673 796.514465,228.320770 
	C781.648499,236.883194 766.958557,245.750885 752.142822,254.401428 
	C745.318787,258.385773 738.427612,262.261810 731.477600,266.021912 
	C722.508301,270.874512 713.790161,276.435883 704.349182,280.114441 
	C690.362976,285.563965 675.813049,289.556976 661.571472,294.372528 
	C659.831604,294.960815 658.513550,296.796600 656.618286,298.172394 
	C652.603760,299.039307 648.970886,299.788055 644.613770,300.686096 
	C650.455017,307.966309 655.892883,314.743835 661.714539,321.999664 
	C657.200989,325.393768 653.130066,328.460602 649.053284,331.519684 
	C634.067627,342.764526 619.080078,354.006836 604.036255,364.886292 
	C597.867737,357.401581 591.791931,350.249573 585.628906,343.173462 
	C582.730591,339.845673 579.679749,336.622375 574.292542,338.952820 
	C571.718262,339.403198 568.988281,339.441742 567.241638,340.771698 
	C552.514832,351.985413 537.967896,363.435272 523.187988,374.407837 
	C520.167297,373.444336 517.309814,372.360321 514.487183,372.444489 
	C509.313934,372.598785 504.161255,373.442535 499.000000,373.998779 
z"/>
<path fill="#FFCE92" opacity="1.000000" stroke="none" 
	d="
M333.990417,328.992737 
	C335.937439,326.835266 337.716095,324.492310 339.857178,322.548553 
	C365.179901,299.559784 390.559692,276.633820 415.918549,253.684753 
	C437.223816,234.404053 458.457031,215.043045 479.849152,195.859253 
	C490.595398,186.222351 501.624390,176.900787 512.815308,167.725403 
	C511.078278,172.012070 509.051483,176.009949 506.857727,180.327469 
	C503.124451,193.423569 499.056183,206.085388 496.106476,219.002640 
	C491.380951,239.696671 488.660706,260.899567 479.966248,280.533173 
	C474.975128,291.803925 467.804321,300.564575 455.675537,305.469238 
	C437.386414,312.865021 418.019501,313.861603 398.987640,316.913116 
	C382.696289,319.525208 366.335205,321.702667 349.629761,324.098083 
	C344.166473,325.746765 339.078461,327.369751 333.990417,328.992737 
z"/>
<path fill="#FFA347" opacity="1.000000" stroke="none" 
	d="
M732.533875,162.102356 
	C729.984558,165.285339 727.433472,169.137299 723.870361,171.384964 
	C712.817688,178.357239 701.436829,184.818817 690.078308,191.294327 
	C675.565369,199.568222 660.884827,207.548920 646.397705,215.867142 
	C632.807312,223.670486 619.461060,231.900375 605.843567,239.654739 
	C596.243835,245.121170 586.226929,249.857788 576.655273,255.370010 
	C565.048889,262.054047 553.739197,269.251648 542.255371,276.150787 
	C534.027710,281.093628 525.726562,285.914001 517.455139,290.784027 
	C504.509644,298.406006 491.642548,306.165741 478.592102,313.603638 
	C465.504028,321.062927 452.141144,328.040497 439.063782,335.517944 
	C422.929810,344.743042 407.015350,354.351349 390.914612,363.635498 
	C376.414154,371.996918 361.878876,380.306885 347.182892,388.316498 
	C339.966461,392.249603 332.351135,395.450806 324.541321,398.991882 
	C324.123444,390.976135 324.080597,382.951782 324.460571,374.413269 
	C327.676361,372.885040 330.684082,372.247742 333.228607,370.797699 
	C355.086914,358.341400 376.988647,345.951202 398.591461,333.062073 
	C406.030365,328.623718 413.101196,323.886932 421.950989,322.749359 
	C423.066650,322.605957 423.988403,320.954163 425.449158,320.000610 
	C435.180573,318.627228 444.652405,318.002838 453.701874,315.710938 
	C468.237885,312.029510 480.977966,305.337921 486.966339,290.139435 
	C489.502075,283.703796 492.312836,277.376465 495.310730,271.163269 
	C499.615112,276.823547 501.568298,277.242157 507.320221,273.823395 
	C517.673950,267.669464 527.989868,261.450928 538.387695,255.372437 
	C553.270752,246.671921 568.183899,238.021851 583.140808,229.448975 
	C592.893311,223.859131 602.822327,218.575546 612.539062,212.925659 
	C636.832764,198.799835 661.115662,184.651993 685.204529,170.182709 
	C687.803467,168.621628 689.099731,164.891769 691.000305,162.167938 
	C704.689941,162.124435 718.379578,162.080933 732.533875,162.102356 
z"/>
<path fill="#FF4275" opacity="1.000000" stroke="none" 
	d="
M640.997559,698.997864 
	C643.705750,698.308960 646.747437,698.192322 649.068970,696.839661 
	C666.131836,686.898010 682.962097,676.556641 700.042053,666.645142 
	C714.529053,658.238342 729.254089,650.241577 743.869019,642.054932 
	C746.187744,640.756104 748.484985,639.418884 750.785645,638.088074 
	C757.596375,634.148438 757.728577,633.797485 756.178894,626.055115 
	C755.619507,623.260315 756.011902,621.034851 758.935547,619.353210 
	C774.048523,610.660156 789.007080,601.699036 804.103638,592.976929 
	C823.950500,581.510254 843.838623,570.113403 863.795288,558.839355 
	C868.385498,556.246338 873.326904,554.274963 878.473328,552.012451 
	C878.885742,561.697632 878.931519,571.387817 878.541077,581.547607 
	C864.474609,589.164368 850.699524,596.050598 837.247192,603.518372 
	C815.645020,615.510254 794.284058,627.935791 772.758728,640.067383 
	C767.079834,643.267944 765.926208,645.364685 767.431152,651.796753 
	C768.487793,656.312561 769.652649,660.805298 770.598145,665.343994 
	C771.399109,669.188660 770.721191,672.733459 767.085815,674.903137 
	C760.526428,678.817871 753.870178,682.570618 747.242554,686.370300 
	C733.411072,694.299744 719.502014,702.098083 705.796204,710.238892 
	C703.129822,711.822693 701.242065,714.717346 698.527039,717.012085 
	C682.038513,717.014465 666.018005,717.012085 649.992554,716.634521 
	C646.990845,710.505432 643.994202,704.751648 640.997559,698.997864 
z"/>
<path fill="#FF7F5B" opacity="1.000000" stroke="none" 
	d="
M324.102234,576.463501 
	C330.493317,573.091492 337.066010,570.617737 343.100464,567.195007 
	C360.210571,557.490356 377.091919,547.382874 394.080139,537.462830 
	C406.626984,530.136230 419.201691,522.857361 431.761169,515.552429 
	C443.605164,508.663635 455.639252,502.072327 467.180969,494.709412 
	C471.149048,492.178009 473.883575,487.712921 477.575287,484.531250 
	C477.925415,503.288483 477.881836,521.645691 477.503387,540.049438 
	C472.220215,543.840942 467.546021,548.039551 462.263367,551.230896 
	C452.911926,556.880432 443.080963,561.730591 433.650848,567.256958 
	C421.150604,574.582520 408.906281,582.343689 396.437317,589.723938 
	C377.224030,601.096069 357.958649,612.382263 338.606262,623.515320 
	C334.677734,625.775330 330.265411,627.194336 326.076141,629.001099 
	C325.384399,624.779968 324.177216,620.568726 324.096741,616.335938 
	C323.847168,603.204529 324.025665,590.064941 324.102234,576.463501 
z"/>
<path fill="#FFE8EB" opacity="1.000000" stroke="none" 
	d="
M834.021851,696.173279 
	C833.068298,711.238708 827.894836,725.112488 820.785706,738.100769 
	C808.974792,759.679382 791.649353,775.818726 769.315674,786.272766 
	C755.702759,792.644836 741.291870,796.243958 726.335632,798.072388 
	C698.302063,801.499390 670.179688,799.648376 642.100281,799.922729 
	C608.611816,800.249939 575.117249,800.098572 541.626221,799.952271 
	C526.503967,799.886169 511.347809,799.873657 496.271271,798.870850 
	C473.360352,797.346802 450.700439,793.992126 430.049591,782.977600 
	C400.826508,767.390686 381.969513,743.364502 372.987274,711.558960 
	C371.778473,707.278748 371.048431,702.863342 370.481140,698.176270 
	C373.050568,698.984497 375.235535,700.126892 377.646576,701.549683 
	C381.252136,703.877991 384.631622,705.925964 388.007446,708.389526 
	C388.305389,710.590271 388.326691,712.480530 388.950623,714.144775 
	C398.163574,738.717957 413.939850,757.675293 437.234131,770.097656 
	C458.135132,781.243774 481.031006,783.916321 504.103302,784.864075 
	C527.186096,785.812256 550.314636,785.983643 573.421875,785.931885 
	C617.348633,785.833618 661.274109,785.248169 705.200928,785.046509 
	C720.428101,784.976562 735.244690,782.597046 749.649536,777.909485 
	C775.614502,769.459961 795.309326,753.084900 808.211121,729.104858 
	C811.892883,722.261658 813.395630,714.246094 816.116089,706.500000 
	C822.230286,702.879028 828.126038,699.526123 834.021851,696.173279 
z"/>
<path fill="#FF8464" opacity="1.000000" stroke="none" 
	d="
M585.007324,413.001221 
	C583.613708,413.000183 582.220093,412.999146 580.455933,412.636322 
	C580.873230,411.540497 581.536926,410.485291 582.469238,410.124756 
	C588.312744,407.865051 589.915405,405.212494 589.217834,398.985931 
	C589.108643,398.011017 589.802917,396.946045 590.447876,396.052460 
	C593.174561,397.930359 593.116333,402.884918 597.840576,401.612701 
	C599.713379,405.563019 602.602173,406.719025 607.080750,403.805450 
	C613.575317,399.580383 619.590088,394.598724 625.681763,389.778320 
	C632.950317,384.026611 639.768127,377.636993 647.419250,372.468140 
	C650.861267,370.142792 655.794861,369.709381 660.147217,369.099579 
	C685.455505,365.553864 710.197815,359.565979 734.440979,351.631226 
	C762.732422,342.371521 790.202393,330.900543 815.381775,314.996368 
	C832.128113,304.418793 847.571167,291.768524 863.505249,279.921783 
	C866.817017,277.459503 869.563110,274.232269 872.894470,271.802704 
	C874.180176,270.865051 876.369019,271.165833 878.494568,270.944885 
	C878.886597,279.353943 878.930420,287.720490 878.575562,296.590332 
	C877.014343,297.999817 875.802246,298.849670 874.696716,299.820862 
	C860.767761,312.057007 847.399658,325.015900 832.764343,336.337158 
	C821.028320,345.415527 808.192078,353.330322 795.059570,360.278503 
	C779.118103,368.712891 762.376526,375.643158 745.896851,383.036072 
	C744.608459,383.614044 742.518860,383.052124 741.041504,382.440582 
	C736.691162,380.639832 732.538635,378.337128 728.129333,376.720062 
	C727.053101,376.325348 725.289429,377.804810 723.391907,378.330200 
	C708.351257,378.154755 693.757568,377.865723 679.170837,378.069916 
	C671.099548,378.182892 665.334229,383.207916 663.869324,391.162292 
	C663.037903,395.676514 663.244141,400.381805 662.576172,405.009888 
	C636.722778,410.330444 610.845947,411.481018 585.007324,413.001221 
z"/>
<path fill="#FF9A59" opacity="1.000000" stroke="none" 
	d="
M498.596985,374.050995 
	C504.161255,373.442535 509.313934,372.598785 514.487183,372.444489 
	C517.309814,372.360321 520.167297,373.444336 523.019043,374.659790 
	C504.236023,389.974884 485.442932,404.631714 466.553162,419.363953 
	C468.052277,421.585510 469.242065,423.348694 470.271667,425.492096 
	C468.294525,427.217224 466.665375,429.245148 464.632263,429.804260 
	C435.481445,437.821045 407.595306,448.873199 381.783203,464.697113 
	C363.636719,475.821655 346.667267,488.513397 332.635468,504.773499 
	C330.074188,507.741516 327.006653,510.272614 324.172791,513.005371 
	C324.123474,503.975372 324.074158,494.945404 324.089905,485.449219 
	C325.468903,483.592682 327.023163,482.360626 328.059692,480.787445 
	C338.666260,464.689697 350.150940,449.284302 364.385803,436.183472 
	C379.775940,422.019440 396.505310,409.870178 415.213013,400.130676 
	C439.178284,387.654083 464.633362,380.428528 490.863068,375.212280 
	C493.284454,374.730743 495.749268,374.467682 498.596985,374.050995 
z"/>
<path fill="#FF7460" opacity="1.000000" stroke="none" 
	d="
M723.841797,378.422577 
	C725.289429,377.804810 727.053101,376.325348 728.129333,376.720062 
	C732.538635,378.337128 736.691162,380.639832 741.041504,382.440582 
	C742.518860,383.052124 744.608459,383.614044 745.896851,383.036072 
	C762.376526,375.643158 779.118103,368.712891 795.059570,360.278503 
	C808.192078,353.330322 821.028320,345.415527 832.764343,336.337158 
	C847.399658,325.015900 860.767761,312.057007 874.696716,299.820862 
	C875.802246,298.849670 877.014343,297.999817 878.509399,297.055908 
	C878.884338,319.370361 878.926819,341.722473 878.536377,364.545410 
	C876.857666,365.446686 875.517090,365.705658 874.380676,366.333862 
	C861.467285,373.472076 848.523071,380.557983 835.712158,387.876862 
	C822.744141,395.285492 809.856445,402.840607 797.075623,410.566559 
	C794.399658,412.184204 792.343933,414.827881 789.535400,416.999023 
	C777.699829,418.008850 766.325623,418.959686 754.966064,420.061066 
	C751.213562,420.424896 748.327637,421.976654 747.920410,426.371460 
	C747.387146,432.126770 746.750305,437.877563 745.932434,443.598053 
	C745.713867,445.126556 744.673096,446.537537 744.007080,447.533630 
	C743.755310,439.619080 743.291382,432.172791 743.310852,424.727783 
	C743.335938,415.114044 744.051086,405.494843 743.845886,395.891296 
	C743.761780,391.954926 743.123718,387.406860 737.970337,385.612793 
	C735.826660,384.169739 733.737366,383.088013 731.344238,381.899414 
	C728.640808,380.669159 726.241333,379.545868 723.841797,378.422577 
z"/>
<path fill="#FF7460" opacity="1.000000" stroke="none" 
	d="
M326.046570,629.404236 
	C330.265411,627.194336 334.677734,625.775330 338.606262,623.515320 
	C357.958649,612.382263 377.224030,601.096069 396.437317,589.723938 
	C408.906281,582.343689 421.150604,574.582520 433.650848,567.256958 
	C443.080963,561.730591 452.911926,556.880432 462.263367,551.230896 
	C467.546021,548.039551 472.220215,543.840942 477.567230,540.514160 
	C478.062958,554.934753 478.159943,568.937195 477.870087,582.959717 
	C473.814056,585.618774 469.883545,587.965881 466.535767,590.963684 
	C461.259796,595.688232 457.025330,601.853516 451.196777,605.628296 
	C436.897400,614.889282 421.974091,623.192932 407.237244,631.770874 
	C391.829590,640.739197 376.399933,649.672791 360.869965,658.426636 
	C354.720581,661.892822 348.275116,664.833679 341.964417,668.013672 
	C333.682404,656.516357 328.572388,643.695007 326.046570,629.404236 
z"/>
<path fill="#FFAA43" opacity="1.000000" stroke="none" 
	d="
M507.024689,180.007812 
	C509.051483,176.009949 511.078278,172.012070 513.142944,167.670746 
	C518.348999,163.724991 523.907959,161.893280 530.382751,161.920410 
	C571.610168,162.093201 612.838562,162.026855 654.470520,162.425934 
	C647.194641,172.427643 635.542480,176.335983 625.681213,182.746964 
	C614.770447,189.840195 602.888733,195.421356 591.610474,201.972000 
	C574.420288,211.956467 557.440186,222.302536 540.262634,232.309235 
	C530.825500,237.806732 521.153687,242.900345 511.613464,248.222290 
	C506.807495,250.903290 505.837006,250.546844 504.998657,245.032944 
	C504.189331,239.709854 503.653931,234.345139 502.998474,228.556534 
	C503.199890,225.980972 503.193359,223.803345 503.636932,221.721603 
	C505.942688,210.899765 508.534241,200.135620 510.644714,189.277222 
	C511.322723,185.788864 512.637512,181.353088 507.024689,180.007812 
z"/>
<path fill="#FF3975" opacity="1.000000" stroke="none" 
	d="
M698.995117,717.007324 
	C701.242065,714.717346 703.129822,711.822693 705.796204,710.238892 
	C719.502014,702.098083 733.411072,694.299744 747.242554,686.370300 
	C753.870178,682.570618 760.526428,678.817871 767.085815,674.903137 
	C770.721191,672.733459 771.399109,669.188660 770.598145,665.343994 
	C769.652649,660.805298 768.487793,656.312561 767.431152,651.796753 
	C765.926208,645.364685 767.079834,643.267944 772.758728,640.067383 
	C794.284058,627.935791 815.645020,615.510254 837.247192,603.518372 
	C850.699524,596.050598 864.474609,589.164368 878.471252,582.012024 
	C878.890564,590.031250 878.943481,598.055603 878.639648,606.584961 
	C878.234619,607.746887 878.186279,608.403870 878.137939,609.060852 
	C878.097351,610.112366 878.056824,611.163940 877.627563,612.685547 
	C876.813599,614.144226 876.216858,615.095276 875.991089,616.127441 
	C874.610291,622.439575 871.341370,627.629395 865.887939,630.941895 
	C858.819031,635.235779 851.375610,638.908691 844.148560,642.947632 
	C831.329163,650.112000 818.547180,657.343506 805.757812,664.561523 
	C798.125916,668.868835 790.654724,673.491943 782.837952,677.430542 
	C777.124817,680.309143 775.169617,682.599609 776.015198,689.008179 
	C776.999695,696.469849 774.340881,701.865234 767.800842,705.585754 
	C764.354675,707.546326 760.984131,709.717834 757.890259,712.183960 
	C756.529602,713.268494 755.943848,715.325195 754.537354,716.963501 
	C735.710693,716.993408 717.352905,717.000366 698.995117,717.007324 
z"/>
<path fill="#FF6768" opacity="1.000000" stroke="none" 
	d="
M377.420532,701.269348 
	C375.235535,700.126892 373.050568,698.984497 370.536377,697.742676 
	C370.207153,697.643250 370.191864,697.298157 370.558075,697.131836 
	C373.497650,695.853088 376.190369,694.954041 378.624237,693.592346 
	C390.714783,686.827942 402.675995,679.830505 414.813385,673.152588 
	C419.701355,670.463318 423.087250,666.789551 425.296448,661.697388 
	C426.481537,658.965698 428.407288,656.555359 430.388428,653.999390 
	C432.491516,653.479248 434.390991,653.273438 435.886444,652.386475 
	C442.706451,648.341492 449.314117,643.933960 456.179749,639.971375 
	C473.240845,630.124451 490.417633,620.478088 507.499329,610.666504 
	C509.534454,609.497620 511.268372,607.804260 513.300293,606.231445 
	C510.389923,602.153381 501.704742,603.522888 505.374268,595.615356 
	C516.841736,595.326233 527.914368,595.149109 539.060425,595.335144 
	C539.936340,596.104187 540.773987,596.918762 541.535828,596.853088 
	C549.736084,596.146667 556.902283,588.209351 556.988525,579.786438 
	C557.059509,572.855469 557.021484,565.923401 557.378113,558.925537 
	C558.663452,557.311279 559.602356,555.763367 560.900452,553.623413 
	C563.842896,559.292236 567.382263,555.362061 570.780640,555.468628 
	C570.877075,562.519287 571.262573,569.133301 570.816101,575.690735 
	C570.281677,583.539795 573.046326,589.459473 579.052795,593.921387 
	C578.415161,595.354675 577.552734,596.966614 577.999268,598.027954 
	C579.336792,601.207458 578.097534,603.167908 575.561279,604.651855 
	C567.856995,609.159302 560.094299,613.566772 552.369751,618.039612 
	C537.315369,626.756470 522.301697,635.543945 507.212311,644.199707 
	C497.645172,649.687744 487.878265,654.831299 478.366852,660.412048 
	C461.215881,670.475159 444.200195,680.768677 427.101929,690.922058 
	C423.548004,693.032532 421.431122,691.906982 421.053741,687.730469 
	C420.859589,685.581543 421.079651,683.398560 420.981293,681.237000 
	C420.787872,676.986206 419.514923,676.189819 415.653534,678.215942 
	C412.573334,679.832275 409.703125,681.845642 406.717285,683.645569 
	C396.957214,689.529358 387.186920,695.396057 377.420532,701.269348 
z"/>
<path fill="#FF8F52" opacity="1.000000" stroke="none" 
	d="
M657.000000,298.054230 
	C658.513550,296.796600 659.831604,294.960815 661.571472,294.372528 
	C675.813049,289.556976 690.362976,285.563965 704.349182,280.114441 
	C713.790161,276.435883 722.508301,270.874512 731.477600,266.021912 
	C738.427612,262.261810 745.318787,258.385773 752.142822,254.401428 
	C766.958557,245.750885 781.648499,236.883194 796.514465,228.320770 
	C810.289673,220.386673 824.229553,212.738739 838.091431,204.955063 
	C841.992432,202.764587 845.874146,200.539688 849.960693,198.019913 
	C855.029907,204.341354 859.981201,210.918304 864.728149,217.639587 
	C866.130005,219.624451 866.954834,222.016846 868.113770,224.576355 
	C860.358032,229.232498 852.511963,233.497620 844.713867,237.848755 
	C838.485657,241.323883 832.313232,244.899033 826.120728,248.438019 
	C808.991272,258.227356 791.845093,267.987610 774.744324,277.826752 
	C765.871155,282.931976 757.119324,288.248322 748.237061,293.337189 
	C742.852966,296.421875 740.692627,295.485504 738.050537,290.076416 
	C737.113647,288.158234 735.170227,286.731689 732.980286,285.046875 
	C731.336670,285.020355 730.398987,285.027618 729.196899,284.725525 
	C717.882446,286.427124 706.840454,288.483978 695.779480,290.433014 
	C688.411194,291.731415 680.986755,292.725739 673.641785,294.138336 
	C668.050293,295.213654 662.544128,296.732635 657.000000,298.054230 
z"/>
<path fill="#FF8F52" opacity="1.000000" stroke="none" 
	d="
M324.108459,513.469849 
	C327.006653,510.272614 330.074188,507.741516 332.635468,504.773499 
	C346.667267,488.513397 363.636719,475.821655 381.783203,464.697113 
	C407.595306,448.873199 435.481445,437.821045 464.632263,429.804260 
	C466.665375,429.245148 468.294525,427.217224 470.496521,425.780396 
	C474.076935,429.401703 477.272400,433.114899 480.467834,436.828125 
	C479.982330,437.806763 478.968536,438.861877 479.097351,439.751556 
	C479.912842,445.381836 476.858398,448.063629 472.304657,450.523376 
	C460.671082,456.807373 449.209900,463.421204 437.812653,470.128906 
	C427.864166,475.983948 418.123657,482.191284 408.235626,488.150665 
	C404.561310,490.365204 400.690216,492.250549 396.975555,494.401337 
	C382.642761,502.700043 368.454681,511.257294 353.979309,519.298096 
	C344.493500,524.567322 334.606720,529.114563 324.533417,533.993042 
	C324.126251,527.312073 324.085205,520.623230 324.108459,513.469849 
z"/>
<path fill="#FF2E76" opacity="1.000000" stroke="none" 
	d="
M755.006287,716.940552 
	C755.943848,715.325195 756.529602,713.268494 757.890259,712.183960 
	C760.984131,709.717834 764.354675,707.546326 767.800842,705.585754 
	C774.340881,701.865234 776.999695,696.469849 776.015198,689.008179 
	C775.169617,682.599609 777.124817,680.309143 782.837952,677.430542 
	C790.654724,673.491943 798.125916,668.868835 805.757812,664.561523 
	C818.547180,657.343506 831.329163,650.112000 844.148560,642.947632 
	C851.375610,638.908691 858.819031,635.235779 865.887939,630.941895 
	C871.341370,627.629395 874.610291,622.439575 875.991089,616.127441 
	C876.216858,615.095276 876.813599,614.144226 877.603394,613.079895 
	C877.959229,627.365662 874.403992,640.889954 868.428162,653.867554 
	C860.673218,670.709045 849.099792,684.419861 834.229858,695.900635 
	C828.126038,699.526123 822.230286,702.879028 815.778809,706.586121 
	C813.142029,707.894714 811.060974,708.849182 808.609863,709.835449 
	C806.837891,710.357666 805.436035,710.847900 803.678650,711.366699 
	C800.550537,712.278931 797.777893,713.162659 794.619385,714.046448 
	C791.782532,714.612976 789.331421,715.179443 786.465149,715.796509 
	C783.028992,716.236145 780.007935,716.625244 776.521606,716.984680 
	C771.048340,717.000977 766.040344,717.046936 760.603027,717.057373 
	C758.451233,716.994751 756.728760,716.967651 755.006287,716.940552 
z"/>
<path fill="#FFA745" opacity="1.000000" stroke="none" 
	d="
M502.998199,228.998703 
	C503.653931,234.345139 504.189331,239.709854 504.998657,245.032944 
	C505.837006,250.546844 506.807495,250.903290 511.613464,248.222290 
	C521.153687,242.900345 530.825500,237.806732 540.262634,232.309235 
	C557.440186,222.302536 574.420288,211.956467 591.610474,201.972000 
	C602.888733,195.421356 614.770447,189.840195 625.681213,182.746964 
	C635.542480,176.335983 647.194641,172.427643 654.934814,162.490845 
	C666.687012,162.125412 678.378845,162.081680 690.535522,162.102936 
	C689.099731,164.891769 687.803467,168.621628 685.204529,170.182709 
	C661.115662,184.651993 636.832764,198.799835 612.539062,212.925659 
	C602.822327,218.575546 592.893311,223.859131 583.140808,229.448975 
	C568.183899,238.021851 553.270752,246.671921 538.387695,255.372437 
	C527.989868,261.450928 517.673950,267.669464 507.320221,273.823395 
	C501.568298,277.242157 499.615112,276.823547 495.362305,270.761475 
	C495.733246,266.131561 496.364807,262.066772 496.997467,257.570496 
	C498.998444,247.758881 500.998322,238.378799 502.998199,228.998703 
z"/>
<path fill="#FF6963" opacity="1.000000" stroke="none" 
	d="
M790.002441,416.998779 
	C792.343933,414.827881 794.399658,412.184204 797.075623,410.566559 
	C809.856445,402.840607 822.744141,395.285492 835.712158,387.876862 
	C848.523071,380.557983 861.467285,373.472076 874.380676,366.333862 
	C875.517090,365.705658 876.857666,365.446686 878.469604,365.010010 
	C878.884399,388.024658 878.933105,411.045532 878.919678,434.531006 
	C870.570862,437.086029 862.986633,435.027802 855.027954,430.893494 
	C833.847595,421.643616 812.219788,417.938141 790.002441,416.998779 
z"/>
<path fill="#FF6963" opacity="1.000000" stroke="none" 
	d="
M429.998810,654.000000 
	C428.407288,656.555359 426.481537,658.965698 425.296448,661.697388 
	C423.087250,666.789551 419.701355,670.463318 414.813385,673.152588 
	C402.675995,679.830505 390.714783,686.827942 378.624237,693.592346 
	C376.190369,694.954041 373.497650,695.853088 370.564026,696.959167 
	C362.140289,689.305786 354.076752,681.658752 346.060486,673.362427 
	C347.276215,671.545532 348.263550,670.071472 349.640930,669.257019 
	C365.336548,659.975220 381.094635,650.799194 396.829803,641.584167 
	C405.846008,636.304077 414.831116,630.970642 423.867615,625.725525 
	C429.809723,622.276489 435.818604,618.942505 441.797577,615.556946 
	C442.176910,615.883423 442.556213,616.209961 442.935547,616.536438 
	C442.624695,618.023621 442.539001,619.605652 441.960327,620.980164 
	C440.286133,624.956787 438.109161,628.743225 436.686584,632.799622 
	C434.235535,639.788635 432.205536,646.925293 429.998810,654.000000 
z"/>
<path fill="#FF706B" opacity="1.000000" stroke="none" 
	d="
M430.388428,653.999390 
	C432.205536,646.925293 434.235535,639.788635 436.686584,632.799622 
	C438.109161,628.743225 440.286133,624.956787 441.960327,620.980164 
	C442.539001,619.605652 442.624695,618.023621 442.935547,616.536438 
	C442.556213,616.209961 442.176910,615.883423 441.797577,615.556946 
	C435.818604,618.942505 429.809723,622.276489 423.867615,625.725525 
	C414.831116,630.970642 405.846008,636.304077 396.829803,641.584167 
	C381.094635,650.799194 365.336548,659.975220 349.640930,669.257019 
	C348.263550,670.071472 347.276215,671.545532 345.946411,673.051758 
	C344.553589,671.815918 343.322083,670.241455 342.027466,668.340332 
	C348.275116,664.833679 354.720581,661.892822 360.869965,658.426636 
	C376.399933,649.672791 391.829590,640.739197 407.237244,631.770874 
	C421.974091,623.192932 436.897400,614.889282 451.196777,605.628296 
	C457.025330,601.853516 461.259796,595.688232 466.535767,590.963684 
	C469.883545,587.965881 473.814056,585.618774 478.086639,583.211060 
	C481.573395,591.675598 487.507416,595.375549 496.090820,595.309814 
	C499.052460,595.287109 502.016479,595.579102 504.979431,595.727295 
	C501.704742,603.522888 510.389923,602.153381 513.300293,606.231445 
	C511.268372,607.804260 509.534454,609.497620 507.499329,610.666504 
	C490.417633,620.478088 473.240845,630.124451 456.179749,639.971375 
	C449.314117,643.933960 442.706451,648.341492 435.886444,652.386475 
	C434.390991,653.273438 432.491516,653.479248 430.388428,653.999390 
z"/>
<path fill="#FFA745" opacity="1.000000" stroke="none" 
	d="
M425.000000,320.001221 
	C423.988403,320.954163 423.066650,322.605957 421.950989,322.749359 
	C413.101196,323.886932 406.030365,328.623718 398.591461,333.062073 
	C376.988647,345.951202 355.086914,358.341400 333.228607,370.797699 
	C330.684082,372.247742 327.676361,372.885040 324.525513,373.948547 
	C324.113617,364.577850 322.926544,354.973663 324.416046,345.804230 
	C325.361084,339.986420 330.288208,334.815399 333.709961,329.173523 
	C339.078461,327.369751 344.166473,325.746765 349.697449,324.452026 
	C352.157379,325.330383 354.264038,326.570068 356.177094,326.321228 
	C371.138977,324.375275 386.063721,322.143524 401.289856,320.289459 
	C409.386505,320.386353 417.193268,320.193787 425.000000,320.001221 
z"/>
<path fill="#FF2E76" opacity="1.000000" stroke="none" 
	d="
M878.408447,608.917725 
	C878.186279,608.403870 878.234619,607.746887 878.570679,607.049683 
	C878.798584,607.597839 878.738770,608.186218 878.408447,608.917725 
z"/>
<path fill="#FF5575" opacity="1.000000" stroke="none" 
	d="
M708.000000,599.004883 
	C708.733643,599.627197 709.478638,600.801514 710.199158,600.786682 
	C717.642334,600.633789 725.166077,600.854248 732.486084,599.758789 
	C736.142151,599.211548 738.538940,599.410645 740.705505,602.222107 
	C741.009583,602.616760 741.350464,602.983826 741.644226,603.385620 
	C750.656677,615.712463 750.156982,617.167480 736.631592,624.256287 
	C727.986206,628.787415 719.685913,633.977356 711.236328,638.881287 
	C703.109192,643.598083 694.989136,648.327026 686.865723,653.050293 
	C673.836060,660.626221 660.885071,668.342834 647.736511,675.706421 
	C642.658325,678.550293 637.131470,680.592834 631.131836,682.801636 
	C627.969727,678.068604 625.484863,673.534302 622.960815,668.636719 
	C620.281921,660.848145 617.642151,653.422852 615.350403,646.033020 
	C617.342529,645.779114 619.221497,645.908325 620.595459,645.137512 
	C640.702026,633.857056 660.716492,622.412476 680.814514,611.116638 
	C685.648438,608.399780 689.370300,605.284851 688.397034,599.015503 
	C695.197693,599.015747 701.598816,599.010315 708.000000,599.004883 
z"/>
<path fill="#FF456E" opacity="1.000000" stroke="none" 
	d="
M623.000000,669.000000 
	C625.484863,673.534302 627.969727,678.068604 630.726074,682.802612 
	C634.151123,688.202881 637.304749,693.403381 640.727905,698.800842 
	C643.994202,704.751648 646.990845,710.505432 649.524170,716.636353 
	C617.372620,717.019775 585.684448,717.026001 553.538635,717.022583 
	C549.722290,717.004883 546.363586,716.996826 543.041992,716.640015 
	C546.616577,713.415771 549.867126,710.059448 553.740845,707.746948 
	C571.699829,697.026001 589.780884,686.505737 607.936157,676.119568 
	C612.742188,673.370178 617.967285,671.353210 623.000000,669.000000 
z"/>
<path fill="#FF536C" opacity="1.000000" stroke="none" 
	d="
M708.296753,598.711182 
	C701.598816,599.010315 695.197693,599.015747 687.991089,599.012573 
	C684.780212,597.930542 682.374817,596.857056 680.422791,595.712280 
	C692.539062,595.541931 704.209961,595.660095 715.860962,595.235046 
	C720.417053,595.068848 724.928650,593.682861 729.903381,592.886353 
	C735.209961,592.765137 740.061768,588.486511 740.762512,582.892090 
	C741.522339,576.825989 741.738708,570.678162 741.908081,564.558167 
	C741.980347,561.947205 741.028748,559.311035 741.074158,556.695557 
	C741.170532,551.149292 741.839661,545.609741 741.854919,540.066284 
	C741.870178,534.529541 741.126892,528.989746 741.164917,523.454346 
	C741.211792,516.632080 741.722656,509.813080 742.360840,502.995636 
	C743.125793,503.001923 743.562927,503.005249 744.000000,503.008545 
	C743.696655,519.112244 743.888123,535.172485 746.878052,551.096863 
	C747.482483,554.315796 746.989441,557.740845 747.002441,561.535400 
	C745.898743,569.493530 745.351501,577.123840 743.552002,584.446411 
	C741.248047,593.822021 734.852844,596.828369 722.975891,597.948669 
	C718.209473,598.398193 713.389282,598.278259 708.296753,598.711182 
z"/>
<path fill="#FFFEFE" opacity="1.000000" stroke="none" 
	d="
M480.711548,436.976532 
	C477.272400,433.114899 474.076935,429.401703 470.656677,425.400146 
	C469.242065,423.348694 468.052277,421.585510 466.553162,419.363953 
	C485.442932,404.631714 504.236023,389.974884 523.197998,375.066101 
	C537.967896,363.435272 552.514832,351.985413 567.241638,340.771698 
	C568.988281,339.441742 571.718262,339.403198 574.428589,339.276306 
	C582.733276,349.590454 590.601685,359.394318 598.791626,369.598755 
	C600.855286,367.906036 602.474243,366.578064 604.093201,365.250092 
	C619.080078,354.006836 634.067627,342.764526 649.053284,331.519684 
	C653.130066,328.460602 657.200989,325.393768 661.714539,321.999664 
	C655.892883,314.743835 650.455017,307.966309 644.613770,300.686096 
	C648.970886,299.788055 652.603760,299.039307 656.618286,298.172363 
	C662.544128,296.732635 668.050293,295.213654 673.641785,294.138336 
	C680.986755,292.725739 688.411194,291.731415 695.779480,290.433014 
	C706.840454,288.483978 717.882446,286.427124 728.975586,285.017090 
	C721.888123,299.340942 714.711670,313.040222 707.641907,326.794342 
	C702.324524,337.139313 697.144104,347.554688 691.902771,357.938721 
	C690.481934,357.465729 688.627991,357.404602 687.717224,356.446655 
	C684.239807,352.789124 681.066223,348.842712 677.333923,344.517639 
	C673.862061,338.646759 673.648743,338.630981 669.001892,342.466400 
	C658.351929,351.256561 647.647583,359.981079 637.014282,368.791290 
	C624.604614,379.073273 612.246948,389.418030 599.866699,399.735565 
	C599.280334,400.196167 598.693909,400.656769 597.974060,401.365051 
	C593.116333,402.884918 593.174561,397.930359 590.307617,395.741302 
	C585.078308,389.159393 580.311523,383.018372 575.544678,376.877380 
	C574.918213,376.003143 574.291748,375.128906 573.254211,373.794769 
	C571.405151,371.580841 569.967163,369.826813 568.402344,367.918060 
	C566.697815,369.210175 565.356628,370.163055 564.084595,371.200653 
	C542.832092,388.536560 521.572388,405.863556 500.353699,423.240631 
	C494.853882,427.744690 489.488678,432.413086 484.061646,437.006012 
	C483.026184,437.045654 481.990723,437.085297 480.711548,436.976532 
z"/>
<path fill="#E57B52" opacity="1.000000" stroke="none" 
	d="
M692.226807,358.099365 
	C697.144104,347.554688 702.324524,337.139313 707.641907,326.794342 
	C714.711670,313.040222 721.888123,299.340942 729.240051,285.326508 
	C730.398987,285.027618 731.336670,285.020355 732.626953,285.014465 
	C736.488342,293.609863 730.853333,299.962982 727.476074,306.769226 
	C721.734375,318.340485 715.833557,329.837891 709.739502,341.227173 
	C706.712585,346.884338 703.245178,352.322968 699.709351,357.683868 
	C697.802246,360.575226 695.153870,360.732941 692.226807,358.099365 
z"/>
<path fill="#E57B52" opacity="1.000000" stroke="none" 
	d="
M600.034485,400.070801 
	C612.246948,389.418030 624.604614,379.073273 637.014282,368.791290 
	C647.647583,359.981079 658.351929,351.256561 669.001892,342.466400 
	C673.648743,338.630981 673.862061,338.646759 677.038452,344.344299 
	C664.938660,354.209381 652.589966,363.637665 640.472229,373.353912 
	C631.431519,380.602875 622.770752,388.324554 613.765503,395.619263 
	C610.986206,397.870605 607.733032,399.630341 604.479736,401.150238 
	C603.404480,401.652618 601.647522,400.695709 600.034485,400.070801 
z"/>
<path fill="#FF706B" opacity="1.000000" stroke="none" 
	d="
M789.535400,416.999054 
	C812.219788,417.938141 833.847595,421.643616 854.664124,430.854095 
	C856.506287,434.021393 854.733154,435.421875 852.351196,436.759491 
	C838.087463,444.769409 823.864624,452.852051 809.622803,460.901001 
	C800.259583,466.192688 790.893799,471.479767 781.517578,476.748444 
	C772.698364,481.704193 763.754456,486.450989 755.091003,491.664551 
	C751.688232,493.712311 750.174927,492.548981 749.060852,489.594971 
	C747.511169,485.486115 746.169556,481.298767 744.372681,476.601501 
	C744.007568,466.706146 744.008667,457.354279 744.009766,448.002441 
	C744.673096,446.537537 745.713867,445.126556 745.932434,443.598053 
	C746.750305,437.877563 747.387146,432.126770 747.920410,426.371460 
	C748.327637,421.976654 751.213562,420.424896 754.966064,420.061066 
	C766.325623,418.959686 777.699829,418.008850 789.535400,416.999054 
z"/>
<path fill="#FF6963" opacity="1.000000" stroke="none" 
	d="
M744.007080,447.533630 
	C744.008667,457.354279 744.007568,466.706146 744.009338,476.525940 
	C744.008118,485.352356 744.004028,493.710815 744.000000,502.538940 
	C743.562927,503.005249 743.125793,503.001923 742.339294,502.573853 
	C741.665649,499.201416 741.071472,496.254761 741.060242,493.305908 
	C740.978394,471.867035 741.011108,450.427673 741.014343,428.988495 
	C741.015198,423.005585 740.954102,417.021027 741.071838,411.040192 
	C741.239319,402.537933 742.247986,393.952850 738.004639,385.995148 
	C738.009338,385.990295 738.024719,385.974152 738.024719,385.974152 
	C743.123718,387.406860 743.761780,391.954926 743.845886,395.891296 
	C744.051086,405.494843 743.335938,415.114044 743.310852,424.727783 
	C743.291382,432.172791 743.755310,439.619080 744.007080,447.533630 
z"/>
<path fill="#FFFEFE" opacity="1.000000" stroke="none" 
	d="
M505.374268,595.615356 
	C502.016479,595.579102 499.052460,595.287109 496.090820,595.309814 
	C487.507416,595.375549 481.573395,591.675598 478.473480,583.190918 
	C478.159943,568.937195 478.062958,554.934753 477.902130,540.467590 
	C477.881836,521.645691 477.925415,503.288483 477.904907,484.466522 
	C477.968475,477.305847 481.266388,472.375916 487.158264,468.303284 
	C489.615570,467.742004 491.385345,467.080566 493.156342,467.077423 
	C508.620636,467.050201 524.085144,467.140717 539.800293,467.436035 
	C541.960693,468.806244 543.870361,469.936676 545.950867,471.372009 
	C549.683899,475.092010 551.113159,479.204681 551.094604,484.189545 
	C550.978882,515.305969 551.041321,546.423035 551.028198,577.539856 
	C551.024597,586.171387 547.158508,591.729126 538.987000,594.971985 
	C527.914368,595.149109 516.841736,595.326233 505.374268,595.615356 
z"/>
<path fill="#FF7F5B" opacity="1.000000" stroke="none" 
	d="
M539.549561,467.196289 
	C524.085144,467.140717 508.620636,467.050201 493.156342,467.077423 
	C491.385345,467.080566 489.615570,467.742004 487.421997,468.110596 
	C488.794800,461.948151 494.643036,461.823212 499.119598,461.220123 
	C516.434021,458.887482 531.125305,450.982666 545.219849,441.375824 
	C548.991028,438.805328 552.896301,435.924103 557.172852,434.710907 
	C565.402283,432.376251 568.516541,424.256165 575.158325,420.282562 
	C578.513794,418.275055 581.649902,415.900726 584.946289,413.346710 
	C610.845947,411.481018 636.722778,410.330444 662.650635,405.473694 
	C663.082214,413.953033 663.032410,421.977417 662.642090,430.055603 
	C660.869446,431.734650 659.437317,433.359955 657.647522,435.391144 
	C653.470764,429.097107 649.798706,422.993927 641.665771,421.874573 
	C639.567688,421.160645 637.791138,420.589600 635.664673,420.056763 
	C634.811279,420.541962 634.307922,420.988922 633.402100,421.327148 
	C616.745728,421.030334 600.482544,420.441956 584.242126,420.822632 
	C576.089905,421.013733 570.674561,426.935577 570.844788,436.618256 
	C571.087158,450.409454 570.782288,464.210266 570.380859,478.060211 
	C564.832031,481.824890 564.835205,481.260223 560.141235,476.665710 
	C556.134338,472.743683 551.021179,469.830841 546.064697,467.068359 
	C544.425842,466.154968 541.750793,467.100647 539.549561,467.196289 
z"/>
<path fill="#FF9A59" opacity="1.000000" stroke="none" 
	d="
M575.103027,376.909729 
	C580.311523,383.018372 585.078308,389.159393 589.985352,395.611542 
	C589.802917,396.946045 589.108643,398.011017 589.217834,398.985931 
	C589.915405,405.212494 588.312744,407.865051 582.469238,410.124756 
	C581.536926,410.485291 580.873230,411.540497 580.037842,412.636047 
	C561.482239,414.454285 542.974182,415.911011 522.654175,417.510345 
	C525.306824,414.577362 526.859314,412.379547 528.861389,410.725861 
	C541.221252,400.516479 553.596558,390.320679 566.187988,380.401123 
	C568.491272,378.586578 571.810974,378.062073 575.103027,376.909729 
z"/>
<path fill="#E57B52" opacity="1.000000" stroke="none" 
	d="
M484.449860,437.051514 
	C489.488678,432.413086 494.853882,427.744690 500.353699,423.240631 
	C521.572388,405.863556 542.832092,388.536560 564.084595,371.200653 
	C565.356628,370.163055 566.697815,369.210175 568.402344,367.918060 
	C569.967163,369.826813 571.405151,371.580841 572.963013,373.650085 
	C568.233215,376.975708 562.986877,379.500092 558.601929,383.079712 
	C538.470093,399.514130 518.616150,416.288513 498.569489,432.828156 
	C494.675659,436.040802 490.751160,439.999115 484.449860,437.051514 
z"/>
<path fill="#E57B52" opacity="1.000000" stroke="none" 
	d="
M604.036255,364.886292 
	C602.474243,366.578064 600.855286,367.906036 598.791626,369.598755 
	C590.601685,359.394318 582.733276,349.590454 574.728760,339.463074 
	C579.679749,336.622375 582.730591,339.845673 585.628906,343.173462 
	C591.791931,350.249573 597.867737,357.401581 604.036255,364.886292 
z"/>
<path fill="#FFA347" opacity="1.000000" stroke="none" 
	d="
M400.999908,320.000000 
	C386.063721,322.143524 371.138977,324.375275 356.177094,326.321228 
	C354.264038,326.570068 352.157379,325.330383 350.072693,324.426331 
	C366.335205,321.702667 382.696289,319.525208 398.987640,316.913116 
	C418.019501,313.861603 437.386414,312.865021 455.675537,305.469238 
	C467.804321,300.564575 474.975128,291.803925 479.966248,280.533173 
	C488.660706,260.899567 491.380951,239.696671 496.106476,219.002640 
	C499.056183,206.085388 503.124451,193.423569 506.857727,180.327469 
	C512.637512,181.353088 511.322723,185.788864 510.644714,189.277222 
	C508.534241,200.135620 505.942688,210.899765 503.636932,221.721603 
	C503.193359,223.803345 503.199890,225.980972 502.998474,228.556534 
	C500.998322,238.378799 498.998444,247.758881 496.636963,257.641296 
	C493.501495,265.324371 491.314148,272.809845 487.786865,279.599213 
	C484.339569,286.234680 480.070435,292.631653 475.180542,298.284180 
	C468.197205,306.356567 458.134399,309.565247 448.150787,311.952789 
	C438.690613,314.215240 428.970856,315.398193 419.358826,317.017731 
	C413.245239,318.047852 407.119965,319.008331 400.999908,320.000000 
z"/>
<path fill="#FF9F49" opacity="1.000000" stroke="none" 
	d="
M401.289856,320.289459 
	C407.119965,319.008331 413.245239,318.047852 419.358826,317.017731 
	C428.970856,315.398193 438.690613,314.215240 448.150787,311.952789 
	C458.134399,309.565247 468.197205,306.356567 475.180542,298.284180 
	C480.070435,292.631653 484.339569,286.234680 487.786865,279.599213 
	C491.314148,272.809845 493.501495,265.324371 496.635864,258.072815 
	C496.364807,262.066772 495.733246,266.131561 495.050140,270.598114 
	C492.312836,277.376465 489.502075,283.703796 486.966339,290.139435 
	C480.977966,305.337921 468.237885,312.029510 453.701874,315.710938 
	C444.652405,318.002838 435.180573,318.627228 425.449158,320.000610 
	C417.193268,320.193787 409.386505,320.386353 401.289856,320.289459 
z"/>
<path fill="#FF647F" opacity="1.000000" stroke="none" 
	d="
M553.996277,717.032227 
	C585.684448,717.026001 617.372620,717.019775 649.529175,717.011658 
	C666.018005,717.012085 682.038513,717.014465 698.527039,717.012085 
	C717.352905,717.000366 735.710693,716.993408 754.537354,716.963501 
	C756.728760,716.967651 758.451233,716.994751 760.551270,717.390625 
	C760.264160,718.693787 759.701660,719.725281 758.919434,720.547913 
	C746.417725,733.695984 730.279846,738.409180 712.959595,738.800659 
	C699.068054,739.114563 685.140015,737.598816 671.222534,737.033508 
	C652.813416,736.285706 634.398804,735.673096 615.716797,734.717773 
	C608.265259,733.622803 601.076721,732.867004 593.903381,731.987488 
	C586.085999,731.028931 578.078308,730.719604 570.534851,728.701843 
	C563.952271,726.941162 556.382751,725.299316 553.996277,717.032227 
z"/>
<path fill="#FF606A" opacity="1.000000" stroke="none" 
	d="
M377.646576,701.549683 
	C387.186920,695.396057 396.957214,689.529358 406.717285,683.645569 
	C409.703125,681.845642 412.573334,679.832275 415.653534,678.215942 
	C419.514923,676.189819 420.787872,676.986206 420.981293,681.237000 
	C421.079651,683.398560 420.859589,685.581543 421.053741,687.730469 
	C421.431122,691.906982 423.548004,693.032532 427.101929,690.922058 
	C444.200195,680.768677 461.215881,670.475159 478.366852,660.412048 
	C487.878265,654.831299 497.645172,649.687744 507.212311,644.199707 
	C522.301697,635.543945 537.315369,626.756470 552.369751,618.039612 
	C560.094299,613.566772 567.856995,609.159302 575.561279,604.651855 
	C578.097534,603.167908 579.336792,601.207458 577.999268,598.027954 
	C577.552734,596.966614 578.415161,595.354675 579.373169,594.143311 
	C597.659851,594.428406 615.252563,594.564575 633.070557,595.011108 
	C634.075256,595.511658 634.896973,595.966919 635.627563,595.850647 
	C642.597168,594.741272 648.821960,587.648010 648.963196,580.492798 
	C649.097839,573.674377 648.751221,566.839478 649.081360,560.034424 
	C649.325745,554.997864 650.316162,549.997498 651.248169,545.210083 
	C652.348022,547.627747 653.174011,549.816284 654.000000,552.473267 
	C654.000000,560.753601 654.053711,568.566040 653.987488,576.377502 
	C653.885193,588.446655 645.811829,600.193848 633.019104,600.107605 
	C626.415283,600.063049 619.807556,600.899109 613.200439,600.917480 
	C609.353027,600.928162 607.479126,602.177979 608.010925,606.113708 
	C609.312317,615.744629 610.666870,625.368469 611.593750,634.995911 
	C609.128479,635.496033 606.814392,635.550537 605.049316,636.562500 
	C583.643860,648.834656 562.304382,661.222046 540.978333,673.632141 
	C521.676208,684.864502 502.345825,696.051392 483.180573,707.513489 
	C478.802551,710.131836 475.051331,713.798218 470.549500,716.989380 
	C466.368195,717.019775 462.649109,717.042908 458.465790,717.061584 
	C449.648499,717.078796 441.295380,717.100464 432.494446,717.095459 
	C429.040100,717.028198 426.033600,716.987671 422.637543,716.874817 
	C419.875397,716.460999 417.502777,716.119507 414.820801,715.551025 
	C410.385925,714.448303 406.260437,713.572571 401.886230,712.502930 
	C400.416260,711.978210 399.194977,711.647522 397.631592,711.166382 
	C394.196747,710.001892 391.103943,708.987915 388.011108,707.973938 
	C384.631622,705.925964 381.252136,703.877991 377.646576,701.549683 
z"/>
<path fill="#FFDDDF" opacity="1.000000" stroke="none" 
	d="
M388.007446,708.389526 
	C391.103943,708.987915 394.196747,710.001892 397.639038,711.536682 
	C398.307861,713.331360 398.487885,714.660461 398.967834,715.870667 
	C404.391357,729.546326 412.978973,740.883362 423.995026,750.605103 
	C433.213440,758.740540 443.369385,764.969299 454.949677,769.198608 
	C472.188171,775.494446 490.186646,776.834900 508.198425,777.903320 
	C521.959290,778.719604 535.771057,778.915649 549.561340,778.954041 
	C594.054443,779.078003 638.548889,779.144775 683.041138,778.911987 
	C695.791748,778.845276 708.572205,778.085999 721.276428,776.946167 
	C745.447693,774.777527 767.098511,766.501526 784.694519,749.131714 
	C795.985840,737.985596 804.880249,725.380432 808.979980,709.803589 
	C811.060974,708.849182 813.142029,707.894714 815.560303,706.854187 
	C813.395630,714.246094 811.892883,722.261658 808.211121,729.104858 
	C795.309326,753.084900 775.614502,769.459961 749.649536,777.909485 
	C735.244690,782.597046 720.428101,784.976562 705.200928,785.046509 
	C661.274109,785.248169 617.348633,785.833618 573.421875,785.931885 
	C550.314636,785.983643 527.186096,785.812256 504.103302,784.864075 
	C481.031006,783.916321 458.135132,781.243774 437.234131,770.097656 
	C413.939850,757.675293 398.163574,738.717957 388.950623,714.144775 
	C388.326691,712.480530 388.305389,710.590271 388.007446,708.389526 
z"/>
<path fill="#FFFEFE" opacity="1.000000" stroke="none" 
	d="
M662.982544,430.001831 
	C663.032410,421.977417 663.082214,413.953033 663.057617,405.464844 
	C663.244141,400.381805 663.037903,395.676514 663.869324,391.162292 
	C665.334229,383.207916 671.099548,378.182892 679.170837,378.069916 
	C693.757568,377.865723 708.351257,378.154755 723.391907,378.330200 
	C726.241333,379.545868 728.640808,380.669159 731.451050,382.223236 
	C732.623169,383.763947 733.384521,384.873901 734.211670,386.345947 
	C735.108582,390.363708 736.655029,394.017700 736.664001,397.675446 
	C736.807739,456.477478 736.684265,515.280212 736.837219,574.082214 
	C736.856628,581.544189 735.128845,587.853394 729.460510,592.852478 
	C724.928650,593.682861 720.417053,595.068848 715.860962,595.235046 
	C704.209961,595.660095 692.539062,595.541931 680.086548,595.573853 
	C667.489502,592.970520 663.213928,587.606934 663.165283,575.367065 
	C663.126343,565.578857 663.034180,555.790894 663.044922,545.539307 
	C663.069397,519.384827 663.014587,493.693939 663.039978,467.539825 
	C663.074280,454.718353 663.028442,442.360107 662.982544,430.001831 
z"/>
<path fill="#FF6963" opacity="1.000000" stroke="none" 
	d="
M734.145813,385.983887 
	C733.384521,384.873901 732.623169,383.763947 731.754944,382.330139 
	C733.737366,383.088013 735.826660,384.169739 737.970337,385.612793 
	C738.024719,385.974152 738.009338,385.990295 737.619141,385.990479 
	C736.201233,385.988403 735.173523,385.986145 734.145813,385.983887 
z"/>
<path fill="#FFFEFE" opacity="1.000000" stroke="none" 
	d="
M632.845276,594.700745 
	C615.252563,594.564575 597.659851,594.428406 579.746704,594.070374 
	C573.046326,589.459473 570.281677,583.539795 570.816101,575.690735 
	C571.262573,569.133301 570.877075,562.519287 570.862732,555.005737 
	C570.814026,528.723145 570.762573,503.365082 570.711182,478.006989 
	C570.782288,464.210266 571.087158,450.409454 570.844788,436.618256 
	C570.674561,426.935577 576.089905,421.013733 584.242126,420.822632 
	C600.482544,420.441956 616.745728,421.030334 633.604492,421.538544 
	C634.777161,421.976501 635.344910,422.094330 636.113403,422.471405 
	C641.859985,426.793854 643.990601,432.320129 643.978271,439.114502 
	C643.896179,484.380371 643.823730,529.647034 644.036560,574.912048 
	C644.079163,583.983337 641.100281,590.659485 632.845276,594.700745 
z"/>
<path fill="#FF7460" opacity="1.000000" stroke="none" 
	d="
M570.380859,478.060211 
	C570.762573,503.365082 570.814026,528.723145 570.783325,554.544067 
	C567.382263,555.362061 563.842896,559.292236 560.900452,553.623413 
	C559.602356,555.763367 558.663452,557.311279 557.377991,558.517822 
	C557.022583,553.931519 557.006836,549.686462 557.006104,545.441467 
	C557.002625,526.615479 557.056824,507.789215 556.952087,488.963837 
	C556.933777,485.675415 556.482178,482.343658 555.820984,479.115875 
	C554.956604,474.895905 550.144165,471.241241 545.780029,471.067078 
	C543.870361,469.936676 541.960693,468.806244 539.800293,467.436035 
	C541.750793,467.100647 544.425842,466.154968 546.064697,467.068359 
	C551.021179,469.830841 556.134338,472.743683 560.141235,476.665710 
	C564.835205,481.260223 564.832031,481.824890 570.380859,478.060211 
z"/>
<path fill="#E46254" opacity="1.000000" stroke="none" 
	d="
M545.950867,471.372009 
	C550.144165,471.241241 554.956604,474.895905 555.820984,479.115875 
	C556.482178,482.343658 556.933777,485.675415 556.952087,488.963837 
	C557.056824,507.789215 557.002625,526.615479 557.006104,545.441467 
	C557.006836,549.686462 557.022583,553.931519 557.031555,558.584167 
	C557.021484,565.923401 557.059509,572.855469 556.988525,579.786438 
	C556.902283,588.209351 549.736084,596.146667 541.535828,596.853088 
	C540.773987,596.918762 539.936340,596.104187 539.060425,595.335144 
	C547.158508,591.729126 551.024597,586.171387 551.028198,577.539856 
	C551.041321,546.423035 550.978882,515.305969 551.094604,484.189545 
	C551.113159,479.204681 549.683899,475.092010 545.950867,471.372009 
z"/>
<path fill="#FF859A" opacity="1.000000" stroke="none" 
	d="
M432.942291,717.122192 
	C441.295380,717.100464 449.648499,717.078796 458.523926,717.403137 
	C460.163361,718.909973 461.106720,720.340698 462.424927,721.189026 
	C473.624542,728.396667 485.922150,732.567688 499.140930,733.986633 
	C509.828308,735.134033 520.521240,736.244995 531.226929,737.201538 
	C542.757935,738.231750 554.298218,739.642090 565.850159,739.809631 
	C576.249451,739.960571 586.688904,738.861206 597.074097,737.912842 
	C603.414001,737.333984 609.684692,735.998230 615.986511,735.002441 
	C634.398804,735.673096 652.813416,736.285706 671.222534,737.033508 
	C685.140015,737.598816 699.068054,739.114563 712.959595,738.800659 
	C730.279846,738.409180 746.417725,733.695984 758.919434,720.547913 
	C759.701660,719.725281 760.264160,718.693787 760.980591,717.426147 
	C766.040344,717.046936 771.048340,717.000977 776.486572,717.336914 
	C771.622375,723.804138 766.974915,730.647766 760.906250,735.825867 
	C745.609985,748.877686 726.598022,752.634460 707.396179,752.761292 
	C656.212158,753.099548 604.995422,754.328491 553.888855,749.223083 
	C537.396240,747.575500 520.662415,748.331116 504.038452,748.012329 
	C488.845551,747.720947 473.830139,745.957764 459.873383,739.711792 
	C448.906158,734.803711 438.800079,728.362427 432.942291,717.122192 
z"/>
<path fill="#FFC0CD" opacity="1.000000" stroke="none" 
	d="
M402.134949,712.696899 
	C406.260437,713.572571 410.385925,714.448303 414.782135,715.944885 
	C415.354828,717.672913 415.420227,718.924377 415.994202,719.865723 
	C425.329193,735.176575 437.903534,746.805664 454.482574,754.030151 
	C472.530090,761.894653 491.794861,762.775330 510.950806,763.890747 
	C525.961243,764.764832 541.031433,764.564392 556.069397,765.026306 
	C573.989380,765.576782 591.902710,766.852478 609.820068,766.876038 
	C645.777283,766.923279 681.738098,766.507141 717.691589,765.920959 
	C731.991882,765.687866 745.572449,761.805481 758.137878,754.896484 
	C775.116028,745.561157 788.011658,732.441711 795.005249,714.046387 
	C797.777893,713.162659 800.550537,712.278931 803.660706,711.726440 
	C793.401428,741.360535 772.623108,759.855530 743.183655,768.933044 
	C727.042480,773.910095 710.300781,774.906006 693.564148,774.910156 
	C671.791565,774.915527 650.017944,774.378479 628.246582,773.976379 
	C616.463135,773.758789 604.684326,773.301086 592.901917,773.014832 
	C577.624512,772.643616 562.343811,772.398193 547.067688,771.985046 
	C525.002808,771.388367 502.877960,771.508911 480.893127,769.827454 
	C453.329468,767.719360 430.200500,755.798035 413.322327,733.514038 
	C408.623077,727.309692 405.812164,719.675232 402.134949,712.696899 
z"/>
<path fill="#FFAFC0" opacity="1.000000" stroke="none" 
	d="
M794.619385,714.046387 
	C788.011658,732.441711 775.116028,745.561157 758.137878,754.896484 
	C745.572449,761.805481 731.991882,765.687866 717.691589,765.920959 
	C681.738098,766.507141 645.777283,766.923279 609.820068,766.876038 
	C591.902710,766.852478 573.989380,765.576782 556.069397,765.026306 
	C541.031433,764.564392 525.961243,764.764832 510.950806,763.890747 
	C491.794861,762.775330 472.530090,761.894653 454.482574,754.030151 
	C437.903534,746.805664 425.329193,735.176575 415.994202,719.865723 
	C415.420227,718.924377 415.354828,717.672913 415.091492,716.171875 
	C417.502777,716.119507 419.875397,716.460999 422.662659,717.235107 
	C431.911682,735.018250 447.456879,743.865601 464.879150,749.897705 
	C480.071777,755.157898 496.120026,755.185852 511.965302,755.949219 
	C524.561096,756.556091 537.182434,756.613342 549.789490,757.008423 
	C569.682373,757.631714 589.572815,758.335266 609.464478,758.998535 
	C610.628540,759.037354 611.794922,759.002747 612.959473,759.030884 
	C639.806885,759.678467 666.651733,760.538574 693.503052,760.861084 
	C702.231750,760.965881 710.982971,759.734863 719.714050,758.997986 
	C743.031433,757.030151 763.041626,748.132202 778.280212,730.021179 
	C781.812683,725.822876 784.048096,720.533325 786.880310,715.745850 
	C789.331421,715.179443 791.782532,714.612976 794.619385,714.046387 
z"/>
<path fill="#FFA0B7" opacity="1.000000" stroke="none" 
	d="
M786.465149,715.796448 
	C784.048096,720.533325 781.812683,725.822876 778.280212,730.021179 
	C763.041626,748.132202 743.031433,757.030151 719.714050,758.997986 
	C710.982971,759.734863 702.231750,760.965881 693.503052,760.861084 
	C666.651733,760.538574 639.806885,759.678467 612.959473,759.030884 
	C611.794922,759.002747 610.628540,759.037354 609.464478,758.998535 
	C589.572815,758.335266 569.682373,757.631714 549.789490,757.008423 
	C537.182434,756.613342 524.561096,756.556091 511.965302,755.949219 
	C496.120026,755.185852 480.071777,755.157898 464.879150,749.897705 
	C447.456879,743.865601 431.911682,735.018250 423.052185,717.307495 
	C426.033600,716.987671 429.040100,717.028198 432.494446,717.095459 
	C438.800079,728.362427 448.906158,734.803711 459.873383,739.711792 
	C473.830139,745.957764 488.845551,747.720947 504.038452,748.012329 
	C520.662415,748.331116 537.396240,747.575500 553.888855,749.223083 
	C604.995422,754.328491 656.212158,753.099548 707.396179,752.761292 
	C726.598022,752.634460 745.609985,748.877686 760.906250,735.825867 
	C766.974915,730.647766 771.622375,723.804138 776.951904,717.366577 
	C780.007935,716.625244 783.028992,716.236145 786.465149,715.796448 
z"/>
<path fill="#FFD1DB" opacity="1.000000" stroke="none" 
	d="
M401.886230,712.502869 
	C405.812164,719.675232 408.623077,727.309692 413.322327,733.514038 
	C430.200500,755.798035 453.329468,767.719360 480.893127,769.827454 
	C502.877960,771.508911 525.002808,771.388367 547.067688,771.985046 
	C562.343811,772.398193 577.624512,772.643616 592.901917,773.014832 
	C604.684326,773.301086 616.463135,773.758789 628.246582,773.976379 
	C650.017944,774.378479 671.791565,774.915527 693.564148,774.910156 
	C710.300781,774.906006 727.042480,773.910095 743.183655,768.933044 
	C772.623108,759.855530 793.401428,741.360535 804.016174,711.697937 
	C805.436035,710.847900 806.837891,710.357666 808.609863,709.835510 
	C804.880249,725.380432 795.985840,737.985596 784.694519,749.131714 
	C767.098511,766.501526 745.447693,774.777527 721.276428,776.946167 
	C708.572205,778.085999 695.791748,778.845276 683.041138,778.911987 
	C638.548889,779.144775 594.054443,779.078003 549.561340,778.954041 
	C535.771057,778.915649 521.959290,778.719604 508.198425,777.903320 
	C490.186646,776.834900 472.188171,775.494446 454.949677,769.198608 
	C443.369385,764.969299 433.213440,758.740540 423.995026,750.605103 
	C412.978973,740.883362 404.391357,729.546326 398.967834,715.870667 
	C398.487885,714.660461 398.307861,713.331360 397.981110,711.687134 
	C399.194977,711.647522 400.416260,711.978210 401.886230,712.502869 
z"/>
<path fill="#FF536C" opacity="1.000000" stroke="none" 
	d="
M471.011658,716.982178 
	C475.051331,713.798218 478.802551,710.131836 483.180573,707.513489 
	C502.345825,696.051392 521.676208,684.864502 540.978333,673.632141 
	C562.304382,661.222046 583.643860,648.834656 605.049316,636.562500 
	C606.814392,635.550537 609.128479,635.496033 611.601074,635.385010 
	C613.010620,639.181396 614.006531,642.589478 615.002441,645.997559 
	C617.642151,653.422852 620.281921,660.848145 622.960815,668.636658 
	C617.967285,671.353210 612.742188,673.370178 607.936157,676.119568 
	C589.780884,686.505737 571.699829,697.026001 553.740845,707.746948 
	C549.867126,710.059448 546.616577,713.415771 542.572815,716.648743 
	C518.381592,716.998230 494.696625,716.990234 471.011658,716.982178 
z"/>
<path fill="#FF6374" opacity="1.000000" stroke="none" 
	d="
M615.350464,646.033020 
	C614.006531,642.589478 613.010620,639.181396 612.007324,635.384216 
	C610.666870,625.368469 609.312317,615.744629 608.010925,606.113708 
	C607.479126,602.177979 609.353027,600.928162 613.200439,600.917480 
	C619.807556,600.899109 626.415283,600.063049 633.019104,600.107605 
	C645.811829,600.193848 653.885193,588.446655 653.987488,576.377502 
	C654.053711,568.566040 654.000000,560.753601 654.305298,552.314270 
	C656.981873,549.184082 658.065430,544.788452 662.965576,546.002808 
	C663.034180,555.790894 663.126343,565.578857 663.165283,575.367065 
	C663.213928,587.606934 667.489502,592.970520 679.633179,595.645142 
	C682.374817,596.857056 684.780212,597.930542 687.591553,599.006836 
	C689.370300,605.284851 685.648438,608.399780 680.814514,611.116638 
	C660.716492,622.412476 640.702026,633.857056 620.595459,645.137512 
	C619.221497,645.908325 617.342529,645.779114 615.350464,646.033020 
z"/>
<path fill="#FF7279" opacity="1.000000" stroke="none" 
	d="
M470.549469,716.989380 
	C494.696625,716.990234 518.381592,716.998230 542.535767,716.997498 
	C546.363586,716.996826 549.722290,717.004883 553.538635,717.022583 
	C556.382751,725.299316 563.952271,726.941162 570.534851,728.701843 
	C578.078308,730.719604 586.085999,731.028931 593.903381,731.987488 
	C601.076721,732.867004 608.265259,733.622803 615.716797,734.717773 
	C609.684692,735.998230 603.414001,737.333984 597.074097,737.912842 
	C586.688904,738.861206 576.249451,739.960571 565.850159,739.809631 
	C554.298218,739.642090 542.757935,738.231750 531.226929,737.201538 
	C520.521240,736.244995 509.828308,735.134033 499.140930,733.986633 
	C485.922150,732.567688 473.624542,728.396667 462.424927,721.189026 
	C461.106720,720.340698 460.163361,718.909973 458.988098,717.407654 
	C462.649109,717.042908 466.368195,717.019775 470.549469,716.989380 
z"/>
<path fill="#E46254" opacity="1.000000" stroke="none" 
	d="
M734.211670,386.345947 
	C735.173523,385.986145 736.201233,385.988403 737.614502,385.995331 
	C742.247986,393.952850 741.239319,402.537933 741.071838,411.040192 
	C740.954102,417.021027 741.015198,423.005585 741.014343,428.988495 
	C741.011108,450.427673 740.978394,471.867035 741.060242,493.305908 
	C741.071472,496.254761 741.665649,499.201416 742.011475,502.570862 
	C741.722656,509.813080 741.211792,516.632080 741.164917,523.454346 
	C741.126892,528.989746 741.870178,534.529541 741.854919,540.066284 
	C741.839661,545.609741 741.170532,551.149292 741.074158,556.695557 
	C741.028748,559.311035 741.980347,561.947205 741.908081,564.558167 
	C741.738708,570.678162 741.522339,576.825989 740.762512,582.892090 
	C740.061768,588.486511 735.209961,592.765137 729.903381,592.886353 
	C735.128845,587.853394 736.856628,581.544189 736.837219,574.082214 
	C736.684265,515.280212 736.807739,456.477478 736.664001,397.675446 
	C736.655029,394.017700 735.108582,390.363708 734.211670,386.345947 
z"/>
<path fill="#E46254" opacity="1.000000" stroke="none" 
	d="
M633.070557,595.011108 
	C641.100281,590.659485 644.079163,583.983337 644.036560,574.912048 
	C643.823730,529.647034 643.896179,484.380371 643.978271,439.114502 
	C643.990601,432.320129 641.859985,426.793854 636.143127,422.106140 
	C635.986328,420.993896 636.000488,420.506226 636.014648,420.018524 
	C637.791138,420.589600 639.567688,421.160645 641.814209,422.173035 
	C649.456970,428.527924 651.473938,436.297424 651.073059,445.280701 
	C650.688110,453.906525 650.933167,462.563843 651.038879,471.205627 
	C651.062561,473.143036 651.658325,475.073456 651.820557,477.388306 
	C651.428711,479.725433 651.021240,481.680786 651.014954,483.637451 
	C650.965149,499.089874 650.991943,514.542542 650.991943,530.445679 
	C650.989258,533.598450 650.989746,536.300720 650.987305,539.430420 
	C650.981079,541.565552 650.977661,543.273315 650.974243,544.981018 
	C650.316162,549.997498 649.325745,554.997864 649.081360,560.034424 
	C648.751221,566.839478 649.097839,573.674377 648.963196,580.492798 
	C648.821960,587.648010 642.597168,594.741272 635.627563,595.850647 
	C634.896973,595.966919 634.075256,595.511658 633.070557,595.011108 
z"/>
<path fill="#FF7460" opacity="1.000000" stroke="none" 
	d="
M651.990723,477.007141 
	C651.658325,475.073456 651.062561,473.143036 651.038879,471.205627 
	C650.933167,462.563843 650.688110,453.906525 651.073059,445.280701 
	C651.473938,436.297424 649.456970,428.527924 642.135742,422.315887 
	C649.798706,422.993927 653.470764,429.097107 657.647522,435.391144 
	C659.437317,433.359955 660.869446,431.734650 662.642090,430.055603 
	C663.028442,442.360107 663.074280,454.718353 662.690979,467.577454 
	C658.838135,471.054565 655.414429,474.030853 651.990723,477.007141 
z"/>
<path fill="#FF7460" opacity="1.000000" stroke="none" 
	d="
M635.664673,420.056763 
	C636.000488,420.506226 635.986328,420.993896 635.942383,421.846863 
	C635.344910,422.094330 634.777161,421.976501 634.007019,421.647278 
	C634.307922,420.988922 634.811279,420.541962 635.664673,420.056763 
z"/>
<path fill="#FF706B" opacity="1.000000" stroke="none" 
	d="
M651.820557,477.388306 
	C655.414429,474.030853 658.838135,471.054565 662.610779,468.040649 
	C663.014587,493.693939 663.069397,519.384827 663.044922,545.539307 
	C658.065430,544.788452 656.981873,549.184082 654.305298,551.845947 
	C653.174011,549.816284 652.348022,547.627747 651.248169,545.210083 
	C650.977661,543.273315 650.981079,541.565552 651.381042,539.416870 
	C654.843445,536.724976 654.531921,533.149963 650.995117,529.995117 
	C650.991943,514.542542 650.965149,499.089874 651.014954,483.637451 
	C651.021240,481.680786 651.428711,479.725433 651.820557,477.388306 
z"/>
<path fill="#FF606A" opacity="1.000000" stroke="none" 
	d="
M650.991943,530.445679 
	C654.531921,533.149963 654.843445,536.724976 651.383911,538.989441 
	C650.989746,536.300720 650.989258,533.598450 650.991943,530.445679 
z"/>
</svg>