<?xml version="1.0" encoding="iso-8859-1"?>
<!-- Uploaded to: SVG Repo, www.svgrepo.com, Generator: SVG Repo Mixer Tools -->
<svg height="800px" width="800px" version="1.1" id="Layer_1" xmlns="http://www.w3.org/2000/svg" xmlns:xlink="http://www.w3.org/1999/xlink" 
	 viewBox="0 0 512 512" xml:space="preserve">
<path style="fill:#FA6E51;" d="M0,256.006C0,397.402,114.606,512.004,255.996,512C397.394,512.004,512,397.402,512,256.006
	C512.009,114.61,397.394,0,255.996,0C114.606,0,0,114.614,0,256.006z"/>
<path style="fill:#E8573F;" d="M506.975,306.619c-0.29-0.311-0.556-0.647-0.902-0.902c-0.464-0.561-248.132-248.287-248.71-248.715
	c-1.648-2.004-4.067-3.339-6.589-3.261c-4.246,0.082-7.769,3.3-8.222,7.522c-5.259,48.796-32.229,92.768-58.302,135.3
	c-28.575,46.59-55.553,90.588-54.647,139.26c0.642,34.241,15.302,65.027,38.445,87.173c0.511,0.506,87.447,87.47,87.965,87.964
	c0.34,0.337,0.676,0.674,1.012,1.012C380.634,511.488,483.548,423.438,506.975,306.619z"/>
<g>
	<path style="fill:#F4F6F9;" d="M322.589,194.047c-27.652-41.553-56.236-84.522-63.322-133.095c-0.601-4.197-4.543-7.333-8.494-7.21
		c-4.246,0.082-7.77,3.3-8.222,7.522c-5.259,48.796-32.228,92.768-58.301,135.301c-28.575,46.59-55.552,90.588-54.647,139.26
		c1.276,67.988,57.733,122.437,126.364,122.437c0.782,0,1.572,0,2.354-0.016c33.727-0.618,65.215-14.156,88.645-38.122
		c23.463-23.999,36.047-55.569,35.43-88.9C381.483,282.551,352.876,239.558,322.589,194.047z M334.917,408.339
		c-20.32,20.781-47.627,32.516-76.901,33.052c-60.622,1.316-110.447-46.409-111.557-105.878
		c-0.815-43.743,24.912-85.707,52.154-130.132c20.526-33.471,41.586-67.815,53.026-105.385
		c12.838,37.134,35.158,70.679,56.918,103.386c28.887,43.413,56.17,84.415,56.985,128.158
		C366.077,360.317,355.204,387.591,334.917,408.339z"/>
	<path style="fill:#F4F6F9;" d="M342.432,348.985c-4.477-1.177-9.119,1.49-10.304,5.991c-3.325,12.601-9.506,24.369-17.859,34.031
		c-3.893,4.51-8.18,8.526-12.749,11.941c-3.728,2.79-4.494,8.065-1.703,11.793c1.654,2.214,4.189,3.382,6.757,3.382
		c1.753,0,3.522-0.543,5.037-1.679c5.539-4.14,10.723-8.995,15.414-14.411c10.016-11.596,17.423-25.685,21.398-40.747
		C349.609,354.786,346.925,350.17,342.432,348.985z"/>
</g>
</svg>